<svg xmlns="http://www.w3.org/2000/svg" viewBox="0 0 378.47214 63.1615">
  <defs>
    <style>
      .cls-1 {
        fill: #115199;
      }
    </style>
  </defs>
  <g id="Capa_2" data-name="Capa 2">
    <g id="INFO">
      <path class="cls-1" d="M224.62084,8.454l22.94394-1.44609-2.65219,9.84841h18.59407l-2.17782,7.89959H242.4947L236.21856,48.5457s-1.69192,7.84831,5.06437,7.84831H253.3665l3.13809-1.20048-2.41217,7.89959-30.67764.06838S210.611,60.62378,214.24061,46.854c3.624-13.76419,10.38023-38.4,10.38023-38.4m41.7838,19.08s-1.9377,7.00786-5.31015,20.77171c-3.38384,13.76977,11.83207,14.78744,11.83207,14.78744h42.75555l3.8583-8.39116-2.658,1.21165h-29.9403c-4.83572,0-3.86973-5.91589-3.86973-5.91589l1.70339-6.28185h37.90264l3.38388-13.52417c1.69191-13.76977-13.0439-13.28379-13.0439-13.28379h-33.81c-12.0779,0-12.80382,10.62606-12.80382,10.62606m36.2279,8.09356H286.94216L288.86844,28.5s.12-3.80135,3.50389-3.80135h8.814s3.864.90324,3.018,3.92137c-.72592,2.60052-1.57186,7.00751-1.57186,7.00751m30.67764-13.4038s-7.24784,27.774-9.18559,34.5359c-1.932,6.76191-3.13233,6.33349-3.13233,6.33349h26.082c-.73164-.73194-.24579-6.33349-.24579-6.33349s5.796-23.18976,6.76776-27.048a4.47653,4.47653,0,0,1,4.83-3.42945h12.07215a7.521,7.521,0,0,1,4.59565,1.7374l3.37816-11.11169H362.53027c-6.51621,0-8.4482,6.11614-8.4482,6.11614V16.90791H332.82433c1.69192.966.48585,5.31582.48585,5.31582M154.81732,19.32l14.37,24.1558L141.77913,63.05858H155.789L172.8169,50.96376s4.10409,7.00194,4.8243,8.448a19.265,19.265,0,0,1,1.21177,3.64679h27.65394l-2.17781-2.9152L191.05089,37.43959l28.73423-20.53168-15.456.0457c-.24007,1.93208-4.21839,4.4241-4.21839,4.4241l-13.16962,9.54s-5.79029-9.90563-6.762-11.8377c-.966-1.93207-.48014-2.1721-.48014-2.1721H152.16507A6.48227,6.48227,0,0,1,154.81732,19.32M84.29353,26.08788a7.30156,7.30156,0,0,1,3.85831-1.71508h28.50558c1.44614,0,4.83-.217,4.1098,4.1272-.73168,4.34979-3.1438,3.48109-3.1438,3.48109s-23.23547-.24038-25.59614,0c-2.41788.24-9.91152-2.02941-14.25567,13.66685-4.34416,15.7015,9.9058,17.39355,9.9058,17.39355h20.76613c2.66366,0,5.31586-4.82984,5.31586-4.82984a17.14231,17.14231,0,0,0,.966,4.82984h22.22373a7.09722,7.09722,0,0,1-.966-5.79587s5.55593-19.08,7.48225-28.01995c1.932-8.934-8.08812-12.31776-9.17417-12.22077-1.09176.09734-46.6138,0-46.6138,0Zm33.32989,13.88385s-1.68621,8.334-2.898,11.95807c-1.20606,3.62377-3.37812,2.65215-3.37812,2.65215h-9.18559c-3.85826,0-3.13233-3.37816-3.13233-3.37816a59.45626,59.45626,0,0,1,2.17205-8.574c1.20606-3.13814,3.37816-2.60645,3.37816-2.60645ZM17.63379,0c.966.486.24007,5.31024.24007,5.31024S4.10406,55.7936,3.38385,57.9657C2.65793,60.14338,0,63.04149,0,63.04149H60.13782c6.52766,0,9.9058-6.52188,9.9058-6.52188s2.898-9.90563,3.86968-15.94188c.966-6.0359-5.80169-10.14007-5.80169-10.14007,6.5219-.486,7.96808-4.83577,8.93408-6.52781.9717-1.68612,3.86972-13.52382,3.86972-13.52382C80.91541,1.44609,71.49547,0,71.49547,0Zm34.536,26.08788c-2.65793,0-15.456-.19433-15.456-.19433L41.05787,9.78561H55.30781s3.38387.36039,2.65793,4.22419a63.28431,63.28431,0,0,1-2.41213,8.454s-.72594,3.62412-3.38387,3.62412M29.4716,52.77547,34.05581,35.1419H47.8256s3.61821.36562,3.13807,3.26373c-.48585,2.89811-2.65793,10.14007-2.65793,10.14007s.24007,4.22977-4.83,4.22977Z"/>
    </g>
  </g>
</svg>
