<svg xmlns="http://www.w3.org/2000/svg" viewBox="0 0 378.97978 159.24205">
  <defs>
    <style>
      .cls-1 {
        fill: #00458d;
      }

      .cls-2 {
        fill: #3faec9;
      }
    </style>
  </defs>
  <g id="Capa_2" data-name="Capa 2">
    <g id="INFO">
      <g>
        <rect class="cls-1" x="231.12206" y="1.77302" width="24.64441" height="88.46724"/>
        <path class="cls-1" d="M343.34434,84.17147a49.19744,49.19744,0,0,1-26.92018,7.83467c-27.30364,0-47.52449-20.34864-47.52449-45.74481v-.25569C268.89967,20.60434,289.37616,0,316.6748,0c27.30364,0,47.52448,20.34864,47.52448,45.74992v.25572a44.15365,44.15365,0,0,1-7.83473,25.40127l9.10293,7.70682L353.07622,92.89087ZM325.64991,68.62488,313.39162,58.13605l12.38611-13.89986,12.00765,10.86726a24.17385,24.17385,0,0,0,1.5137-8.59153v-.25059c0-12.89752-9.2256-24.14324-22.87492-24.14324-13.39353,0-22.37379,11.123-22.37379,23.88755v.25569c0,12.75945,9.09778,24.01027,22.62443,24.01027a25.1721,25.1721,0,0,0,8.97511-1.64672"/>
        <polygon class="cls-2" points="0 2.442 63.536 2.442 63.536 8.569 6.633 8.569 6.633 43.651 57.793 43.651 57.793 49.778 6.633 49.778 6.633 85.627 64.176 85.627 64.176 91.754 0 91.754 0 2.442"/>
        <polygon class="cls-2" points="76.175 26.684 83.447 26.684 108.071 84.733 132.95 26.684 139.967 26.684 110.75 92.261 105.391 92.261 76.175 26.684"/>
        <path class="cls-2" d="M147.2411,59.47285v-.2557c0-18.24166,14.1606-34.06441,33.55288-34.06441,19.26447,0,33.2974,15.567,33.2974,33.80871v.2557c0,18.24679-14.16075,34.06441-33.553,34.06441-19.26447,0-33.29725-15.56192-33.29725-33.80871m60.08961,0v-.2557c0-15.68978-11.73672-28.19353-26.79236-28.19353-15.43926,0-26.53657,12.62649-26.53657,27.93783v.2557c0,15.6949,11.73656,28.19865,26.7922,28.19865,15.43926,0,26.53673-12.63159,26.53673-27.943"/>
        <rect class="cls-1" x="0.42403" y="116.50582" width="3.91229" height="34.66275"/>
        <path class="cls-1" d="M13.8519,125.56784h3.8149v4.45942a9.68633,9.68633,0,0,1,8.76552-5.0015c6.1879,0,9.80866,4.15769,9.80866,10.24848v15.89433H32.42592V136.21521c0-4.756-2.57745-7.72726-7.08295-7.72726-4.40828,0-7.67617,3.22182-7.67617,8.02389v14.65673H13.8519Z"/>
        <path class="cls-1" d="M45.80306,128.93542H42.28968v-3.319h3.51338v-2.22972c0-2.92009.79267-5.1498,2.22958-6.58172a7.531,7.531,0,0,1,5.49762-1.98424,11.60157,11.60157,0,0,1,4.20882.64436v3.319a12.66031,12.66031,0,0,0-3.71284-.64438c-2.97121,0-4.45931,1.7848-4.45931,5.44643v2.08139h8.121v3.26785H49.618v22.23573H45.80306Z"/>
        <path class="cls-1" d="M62.15,141.4632V125.56887h3.81491v14.95337c0,4.756,2.57246,7.72727,7.08295,7.72727,4.35709,0,7.671-3.22183,7.671-8.02388V125.56887h3.769v25.60074h-3.769v-4.45943a9.73722,9.73722,0,0,1-8.76021,5.00151c-6.19321,0-9.80867-4.15769-9.80867-10.24849"/>
        <path class="cls-1" d="M90.93176,147.90123l1.92789-2.72575a14.98953,14.98953,0,0,0,8.86774,3.273c3.07343,0,5.30316-1.58535,5.30316-4.06565v-.09715c0-2.57236-3.02239-3.56448-6.39251-4.50545-4.00936-1.14042-8.46883-2.52631-8.46883-7.23121v-.09717c0-4.40828,3.66165-7.32837,8.71948-7.32837a17.49536,17.49536,0,0,1,9.2103,2.82294l-1.7336,2.86895a14.482,14.482,0,0,0-7.57909-2.47517c-3.02224,0-4.95544,1.58533-4.95544,3.71276v.10228c0,2.424,3.17066,3.365,6.592,4.40827,3.96332,1.18647,8.22333,2.72066,8.22333,7.32839v.09715c0,4.85321-4.01452,7.67613-9.11307,7.67613a17.62288,17.62288,0,0,1-10.60133-3.76391"/>
        <path class="cls-1" d="M117.83134,115.76429h4.35708v4.20883h-4.35708Zm.24549,9.80355h3.80991v25.60073h-3.80991Z"/>
        <path class="cls-1" d="M129.17211,138.49246v-.10226a13.34769,13.34769,0,0,1,26.69514-.09717v.09717a13.29624,13.29624,0,0,1-13.41913,13.37312,13.11793,13.11793,0,0,1-13.276-13.27086m22.783,0v-.10226a9.69168,9.69168,0,0,0-9.507-10.003c-5.54865,0-9.36371,4.51056-9.36371,9.90584v.09717c0,5.49755,4.0604,9.957,9.46079,9.957,5.54881,0,9.40991-4.45942,9.40991-9.85471"/>
        <path class="cls-1" d="M162.75949,125.56784h3.80991v4.45942a9.69785,9.69785,0,0,1,8.76535-5.0015c6.19306,0,9.81382,4.15769,9.81382,10.24848v15.89433h-3.81506V136.21521c0-4.756-2.57745-7.72726-7.083-7.72726-4.40827,0-7.68115,3.22182-7.68115,8.02389v14.65673h-3.80991Z"/>
        <path class="cls-1" d="M206.50121,146.11847l2.429-2.87405c3.61061,3.26785,7.0778,4.90433,11.885,4.90433,4.65377,0,7.72736-2.47519,7.72736-5.89134v-.10228c0-3.21672-1.7389-5.04753-9.016-6.58686-7.97784-1.73363-11.63949-4.306-11.63949-10.003v-.09717c0-5.44641,4.80718-9.45579,11.38884-9.45579a18.10223,18.10223,0,0,1,12.18666,4.25485l-2.28076,3.02238a15.21983,15.21983,0,0,0-10.00313-3.76391c-4.50534,0-7.37948,2.47517-7.37948,5.59983v.09717c0,3.26785,1.78479,5.09867,9.41491,6.73516,7.7272,1.6825,11.29177,4.50544,11.29177,9.80355v.09717c0,5.94247-4.95544,9.80356-11.84409,9.80356a20.29317,20.29317,0,0,1-14.1606-5.54361"/>
        <path class="cls-1" d="M237.60961,157.95332l1.2835-3.02238a8.022,8.022,0,0,0,4.01451.941c2.28093,0,3.71284-1.18645,5.25213-4.802L236.51511,125.5663h4.214l9.31269,21.34589L258.265,125.5663h4.0554l-10.74444,26.44455c-2.17854,5.29811-4.65377,7.2312-8.52,7.2312a11.61459,11.61459,0,0,1-5.44628-1.28873"/>
        <path class="cls-1" d="M265.25285,147.90123l1.9279-2.72575a14.99181,14.99181,0,0,0,8.87289,3.273c3.06828,0,5.298-1.58535,5.298-4.06565v-.09715c0-2.57236-3.0224-3.56448-6.39251-4.50545-4.00937-1.14042-8.46883-2.52631-8.46883-7.23121v-.09717c0-4.40828,3.66165-7.32837,8.71947-7.32837a17.49539,17.49539,0,0,1,9.21031,2.82294l-1.7336,2.86895a14.482,14.482,0,0,0-7.57909-2.47517c-3.01724,0-4.95544,1.58533-4.95544,3.71276v.10228c0,2.424,3.17066,3.365,6.592,4.40827,3.96333,1.18647,8.22334,2.72066,8.22334,7.32839v.09715c0,4.85321-4.01452,7.67613-9.11308,7.67613a17.62293,17.62293,0,0,1-10.60133-3.76391"/>
        <path class="cls-1" d="M292.89672,144.38535V128.93593h-3.56458v-3.37012h3.56458v-7.72216h3.80991v7.72216h8.121v3.37012h-8.121v14.95338c0,3.11953,1.73874,4.26,4.311,4.26a7.99343,7.99343,0,0,0,3.71284-.88984v3.26785a9.60993,9.60993,0,0,1-4.60273,1.08929c-4.11159,0-7.23106-2.03026-7.23106-7.23121"/>
        <path class="cls-1" d="M322.11655,148.44639a10.60227,10.60227,0,0,0,8.07507-3.61561l2.378,2.13254a13.232,13.232,0,0,1-10.5503,4.802c-7.03676,0-12.77987-5.40039-12.77987-13.37312,0-7.42554,5.20094-13.368,12.28389-13.368,7.57893,0,11.936,6.03964,11.936,13.56746,0,.34776,0,.74154-.051,1.33477H313.1057c.542,5.40039,4.50535,8.51994,9.01085,8.51994m7.48186-11.58836c-.445-4.65375-3.12478-8.61709-8.1723-8.61709-4.40827,0-7.77839,3.66674-8.32041,8.61709Z"/>
        <path class="cls-1" d="M340.14918,125.56784h3.8149v4.306c1.68771-2.52121,3.96348-4.84809,8.26938-4.84809a8.6933,8.6933,0,0,1,8.22333,5.09868,10.206,10.206,0,0,1,9.01085-5.09868c5.90168,0,9.51214,3.95825,9.51214,10.29961v15.8432h-3.80991V136.21521c0-4.95035-2.48038-7.72726-6.638-7.72726-3.8611,0-7.08295,2.87408-7.08295,7.92671v14.75391H357.685V136.11806c0-4.80718-2.52626-7.63011-6.592-7.63011-4.0554,0-7.129,3.37014-7.129,8.075v14.6056h-3.8149Z"/>
      </g>
    </g>
  </g>
</svg>
