<?xml version="1.0" encoding="utf-8"?>
<!-- Generator: Adobe Illustrator 25.2.1, SVG Export Plug-In . SVG Version: 6.00 Build 0)  -->
<svg version="1.1" id="Capa_1" xmlns="http://www.w3.org/2000/svg" xmlns:xlink="http://www.w3.org/1999/xlink" x="0px" y="0px"
	 viewBox="0 0 379 159.2" style="enable-background:new 0 0 379 159.2;" xml:space="preserve">
<style type="text/css">
	.st0{fill:#FFFFFF;}
</style>
<g id="Capa_2_1_">
	<g id="INFO">
		<g>
			<rect x="231.1" y="1.8" class="st0" width="24.6" height="88.5"/>
			<path class="st0" d="M343.3,84.2c-8,5.2-17.4,7.9-26.9,7.8c-27.3,0-47.5-20.3-47.5-45.7V46c0-25.4,20.5-46,47.8-46
				c27.3,0,47.5,20.3,47.5,45.7V46c0.1,9.1-2.7,17.9-7.8,25.4l9.1,7.7l-12.4,13.8L343.3,84.2z M325.6,68.6l-12.3-10.5l12.4-13.9
				l12,10.9c1-2.7,1.5-5.7,1.5-8.6v-0.3c0-12.9-9.2-24.1-22.9-24.1c-13.4,0-22.4,11.1-22.4,23.9v0.3c0,12.8,9.1,24,22.6,24
				C319.7,70.3,322.8,69.7,325.6,68.6"/>
			<polygon class="st0" points="0,2.4 63.5,2.4 63.5,8.6 6.6,8.6 6.6,43.7 57.8,43.7 57.8,49.8 6.6,49.8 6.6,85.6 64.2,85.6 
				64.2,91.8 0,91.8 			"/>
			<polygon class="st0" points="76.2,26.7 83.4,26.7 108.1,84.7 132.9,26.7 140,26.7 110.8,92.3 105.4,92.3 			"/>
			<path class="st0" d="M147.2,59.5v-0.3c0-18.2,14.2-34.1,33.6-34.1c19.3,0,33.3,15.6,33.3,33.8v0.3c0,18.2-14.2,34.1-33.6,34.1
				C161.3,93.3,147.2,77.7,147.2,59.5 M207.3,59.5v-0.3c0-15.7-11.7-28.2-26.8-28.2C165.1,31,154,43.7,154,59v0.3
				c0,15.7,11.7,28.2,26.8,28.2C196.2,87.4,207.3,74.8,207.3,59.5"/>
			<rect x="0.4" y="116.5" class="st0" width="3.9" height="34.7"/>
			<path class="st0" d="M13.9,125.6h3.8v4.5c1.8-3.2,5.1-5.1,8.8-5c6.2,0,9.8,4.2,9.8,10.2v15.9h-3.8v-15c0-4.8-2.6-7.7-7.1-7.7
				c-4.4,0-7.7,3.2-7.7,8v14.7h-3.8V125.6z"/>
			<path class="st0" d="M45.8,128.9h-3.5v-3.3h3.5v-2.2c0-2.9,0.8-5.1,2.2-6.6c1.5-1.4,3.5-2.1,5.5-2c1.4,0,2.9,0.2,4.2,0.6v3.3
				c-1.2-0.4-2.5-0.6-3.7-0.6c-3,0-4.5,1.8-4.5,5.4v2.1h8.1v3.3h-8.1v22.2h-3.8V128.9z"/>
			<path class="st0" d="M62.2,141.5v-15.9H66v15c0,4.8,2.6,7.7,7.1,7.7c4.4,0,7.7-3.2,7.7-8v-14.7h3.8v25.6h-3.8v-4.5
				c-1.8,3.2-5.1,5.1-8.8,5C65.8,151.7,62.1,147.6,62.2,141.5"/>
			<path class="st0" d="M90.9,147.9l1.9-2.7c2.5,2,5.6,3.2,8.9,3.3c3.1,0,5.3-1.6,5.3-4.1v-0.1c0-2.6-3-3.6-6.4-4.5
				c-4-1.1-8.5-2.5-8.5-7.2v-0.1c0-4.4,3.7-7.3,8.7-7.3c3.3,0.1,6.5,1,9.2,2.8l-1.7,2.9c-2.2-1.5-4.9-2.4-7.6-2.5c-3,0-5,1.6-5,3.7
				v0.1c0,2.4,3.2,3.4,6.6,4.4c4,1.2,8.2,2.7,8.2,7.3v0.1c0,4.9-4,7.7-9.1,7.7C97.7,151.6,94,150.3,90.9,147.9"/>
			<path class="st0" d="M117.8,115.8h4.4v4.2h-4.4V115.8z M118.1,125.6h3.8v25.6h-3.8V125.6z"/>
			<path class="st0" d="M129.2,138.5v-0.1c0-7.4,6-13.4,13.3-13.4c7.4,0,13.3,5.9,13.4,13.3v0.1c0,7.3-5.9,13.3-13.2,13.4
				c-0.1,0-0.1,0-0.2,0c-7.2,0.1-13.2-5.7-13.3-13C129.2,138.7,129.2,138.6,129.2,138.5 M152,138.5v-0.1c0.2-5.3-4-9.8-9.4-10
				c0,0-0.1,0-0.1,0c-5.5,0-9.4,4.5-9.4,9.9v0.1c0,5.5,4.1,10,9.5,10C148.1,148.3,152,143.9,152,138.5"/>
			<path class="st0" d="M162.8,125.6h3.8v4.5c1.8-3.2,5.1-5.1,8.8-5c6.2,0,9.8,4.2,9.8,10.2v15.9h-3.8v-15c0-4.8-2.6-7.7-7.1-7.7
				c-4.4,0-7.7,3.2-7.7,8v14.7h-3.8L162.8,125.6z"/>
			<path class="st0" d="M206.5,146.1l2.4-2.9c3.6,3.3,7.1,4.9,11.9,4.9c4.7,0,7.7-2.5,7.7-5.9v-0.1c0-3.2-1.7-5-9-6.6
				c-8-1.7-11.6-4.3-11.6-10v-0.1c0-5.4,4.8-9.5,11.4-9.5c4.4-0.1,8.8,1.4,12.2,4.3l-2.3,3c-2.8-2.4-6.3-3.8-10-3.8
				c-4.5,0-7.4,2.5-7.4,5.6v0.1c0,3.3,1.8,5.1,9.4,6.7c7.7,1.7,11.3,4.5,11.3,9.8v0.1c0,5.9-5,9.8-11.8,9.8
				C215.4,151.7,210.3,149.7,206.5,146.1"/>
			<path class="st0" d="M237.6,158l1.3-3c1.2,0.7,2.6,1,4,0.9c2.3,0,3.7-1.2,5.3-4.8l-11.6-25.5h4.2l9.3,21.3l8.2-21.3h4.1
				L251.6,152c-2.2,5.3-4.7,7.2-8.5,7.2C241.2,159.3,239.3,158.8,237.6,158"/>
			<path class="st0" d="M265.3,147.9l1.9-2.7c2.5,2,5.6,3.2,8.9,3.3c3.1,0,5.3-1.6,5.3-4.1v-0.1c0-2.6-3-3.6-6.4-4.5
				c-4-1.1-8.5-2.5-8.5-7.2v-0.1c0-4.4,3.7-7.3,8.7-7.3c3.3,0.1,6.5,1,9.2,2.8l-1.7,2.9c-2.2-1.5-4.9-2.4-7.6-2.5c-3,0-5,1.6-5,3.7
				v0.1c0,2.4,3.2,3.4,6.6,4.4c4,1.2,8.2,2.7,8.2,7.3v0.1c0,4.9-4,7.7-9.1,7.7C272,151.6,268.3,150.3,265.3,147.9"/>
			<path class="st0" d="M292.9,144.4v-15.4h-3.6v-3.4h3.6v-7.7h3.8v7.7h8.1v3.4h-8.1v15c0,3.1,1.7,4.3,4.3,4.3
				c1.3,0,2.6-0.3,3.7-0.9v3.3c-1.4,0.7-3,1.1-4.6,1.1C296,151.6,292.9,149.6,292.9,144.4"/>
			<path class="st0" d="M322.1,148.4c3.1,0,6-1.3,8.1-3.6l2.4,2.1c-2.6,3.1-6.5,4.9-10.6,4.8c-7,0-12.8-5.4-12.8-13.4
				c0-7.4,5.2-13.4,12.3-13.4c7.6,0,11.9,6,11.9,13.6c0,0.3,0,0.7-0.1,1.3h-20.3C313.6,145.3,317.6,148.4,322.1,148.4 M329.6,136.9
				c-0.4-4.7-3.1-8.6-8.2-8.6c-4.4,0-7.8,3.7-8.3,8.6H329.6z"/>
			<path class="st0" d="M340.1,125.6h3.8v4.3c1.7-2.5,4-4.8,8.3-4.8c3.5-0.1,6.8,1.9,8.2,5.1c1.9-3.2,5.3-5.2,9-5.1
				c5.9,0,9.5,4,9.5,10.3v15.8h-3.8v-15c0-5-2.5-7.7-6.6-7.7c-3.9,0-7.1,2.9-7.1,7.9v14.8h-3.8v-15.1c0-4.8-2.5-7.6-6.6-7.6
				c-4.1,0-7.1,3.4-7.1,8.1v14.6h-3.8L340.1,125.6z"/>
		</g>
	</g>
</g>
</svg>
