<svg xmlns="http://www.w3.org/2000/svg" viewBox="0 0 407.35008 163.50825">
  <defs>
    <style>
      .cls-1, .cls-2 {
        fill: #fff;
      }

      .cls-2 {
        font-size: 42.74953px;
        font-family: Gotham-Book, Gotham;
      }

      .cls-3 {
        letter-spacing: -0.014em;
      }

      .cls-4 {
        letter-spacing: -0.01781em;
      }

      .cls-5 {
        letter-spacing: -0.0123em;
      }

      .cls-6 {
        letter-spacing: -0.03809em;
      }

      .cls-7 {
        letter-spacing: -0.00781em;
      }

      .cls-8 {
        letter-spacing: -0.0121em;
      }

      .cls-9 {
        letter-spacing: -0.00921em;
      }

      .cls-10 {
        letter-spacing: -0.011em;
      }

      .cls-11 {
        letter-spacing: -0.0213em;
      }

      .cls-12 {
        letter-spacing: -0.0018em;
      }

      .cls-13 {
        letter-spacing: -0.01311em;
      }

      .cls-14 {
        letter-spacing: -0.01942em;
      }

      .cls-15 {
        letter-spacing: -0.01679em;
      }

      .cls-16 {
        letter-spacing: -0.01179em;
      }

      .cls-17 {
        letter-spacing: -0.00002em;
      }
    </style>
  </defs>
  <g id="Capa_2" data-name="Capa 2">
    <g id="INFO">
      <g>
        <g>
          <rect class="cls-1" x="259.38794" y="1.95273" width="27.14227" height="97.43393"/>
          <path class="cls-1" d="M382.98462,92.70276a54.18391,54.18391,0,0,1-29.6487,8.62876c-30.071,0-52.34137-22.4111-52.34137-50.38132v-.28162C300.99455,22.69271,323.54644,0,353.612,0c30.071,0,52.34137,22.4111,52.34137,50.387v.28163a48.62893,48.62893,0,0,1-8.62882,27.97585l10.02556,8.48795-13.64719,15.17354ZM363.49676,75.58042,349.996,64.02849l13.64152-15.3087,13.2247,11.96873a26.62426,26.62426,0,0,0,1.66712-9.46234v-.276c0-14.20477-10.16067-26.59031-25.19343-26.59031-14.751,0-24.64151,12.25035-24.64151,26.30869v.28162c0,14.05269,10.0199,26.44385,24.91756,26.44385a27.7233,27.7233,0,0,0,9.88479-1.81363"/>
          <polygon class="cls-1" points="4.84 2.69 74.816 2.69 74.816 9.438 12.145 9.438 12.145 48.075 68.491 48.075 68.491 54.823 12.145 54.823 12.145 94.306 75.52 94.306 75.52 101.053 4.84 101.053 4.84 2.69"/>
          <polygon class="cls-1" points="88.736 29.388 96.745 29.388 123.865 93.321 151.266 29.388 158.994 29.388 126.816 101.612 120.913 101.612 88.736 29.388"/>
          <path class="cls-1" d="M167.00514,65.50078v-.28161c0-20.09056,15.59587-37.51705,36.95367-37.51705,21.217,0,36.67229,17.14485,36.67229,37.23543v.28162c0,20.09621-15.596,37.517-36.95384,37.517-21.217,0-36.67212-17.13922-36.67212-37.23543m66.18005,0v-.28161c0-17.28-12.9263-31.05112-29.50793-31.05112-17.00411,0-29.22621,13.90627-29.22621,30.7695v.28162c0,17.28566,12.92614,31.05674,29.50776,31.05674,17.00412,0,29.22638-13.91187,29.22638-30.77513"/>
        </g>
        <text class="cls-2" transform="translate(-0.00013 156.28315)"><tspan class="cls-3">S</tspan><tspan class="cls-4" x="26.76123" y="0">i</tspan><tspan class="cls-5" x="37.24268" y="0">s</tspan><tspan class="cls-6" x="58.00537" y="0">t</tspan><tspan class="cls-7" x="73.64746" y="0">e</tspan><tspan class="cls-8" x="98.62109" y="0">m</tspan><tspan x="138.7583" y="0">a </tspan><tspan class="cls-9" x="176.33447" y="0">d</tspan><tspan x="204.32617" y="0">e </tspan><tspan class="cls-10" x="242.45801" y="0">I</tspan><tspan class="cls-11" x="254.42725" y="0">n</tspan><tspan class="cls-12" x="279.8501" y="0">f</tspan><tspan class="cls-13" x="295.46191" y="0">u</tspan><tspan class="cls-14" x="321.23535" y="0">s</tspan><tspan class="cls-15" x="341.69434" y="0">i</tspan><tspan class="cls-16" x="352.21875" y="0">รณ</tspan><tspan class="cls-17" x="379.33105" y="0">n</tspan></text>
      </g>
    </g>
  </g>
</svg>
