<?xml version="1.0" encoding="utf-8"?>
<!-- Generator: Adobe Illustrator 25.2.1, SVG Export Plug-In . SVG Version: 6.00 Build 0)  -->
<svg version="1.1" id="Capa_1" xmlns="http://www.w3.org/2000/svg" xmlns:xlink="http://www.w3.org/1999/xlink" x="0px" y="0px"
	 viewBox="0 0 1907 240" style="enable-background:new 0 0 1907 240;" xml:space="preserve">
<style type="text/css">
	.st0{clip-path:url(#SVGID_2_);}
	.st1{fill:#C6D026;}
	.st2{fill:#004588;}
	.st3{fill:none;stroke:#FFFFFF;stroke-width:10;}
</style>
<g id="Capa_2_1_">
	<g id="PLECAS">
		<g>
			<g>
				<g>
					<g>
						<g>
							<defs>
								<rect id="SVGID_1_" x="4.1" y="-104.5" width="1894.4" height="338.5"/>
							</defs>
							<clipPath id="SVGID_2_">
								<use xlink:href="#SVGID_1_"  style="overflow:visible;"/>
							</clipPath>
							<g class="st0">
								<path class="st1" d="M2038.2,196l-36-129.9c0,0-96.3-82.5-552.6-49C1236.1,32.7,979.7,145.3,919,183.6
									c55.4-5.3-31.5-16.6,27.1-19.9C1349.4,140.1,1747.9,165.9,2038.2,196"/>
								<path class="st2" d="M-560.6,402.6c0,0,965.2-356.7,1724.9-347.6c779.4,9.2,1309.6,303.8,1309.6,303.8v382.9
									c0,0-761.2-289.9-1776.2-355.5C-476.5,310-560.6,402.6-560.6,402.6"/>
								<path class="st3" d="M-560.6,402.6c0,0,965.2-356.7,1724.9-347.6c779.4,9.2,1309.6,303.8,1309.6,303.8v382.9
									c0,0-761.2-289.9-1776.2-355.5C-476.5,310-560.6,402.6-560.6,402.6z"/>
							</g>
						</g>
					</g>
				</g>
			</g>
		</g>
	</g>
</g>
</svg>
