<?xml version="1.0" encoding="utf-8"?>
<!-- Generator: Adobe Illustrator 25.2.1, SVG Export Plug-In . SVG Version: 6.00 Build 0)  -->
<svg version="1.1" id="Capa_1" xmlns="http://www.w3.org/2000/svg" xmlns:xlink="http://www.w3.org/1999/xlink" x="0px" y="0px"
	 viewBox="0 0 1920 2800" style="enable-background:new 0 0 1920 2800;" xml:space="preserve">
<style type="text/css">
	.st0{clip-path:url(#SVGID_2_);}
	.st1{fill:url(#SVGID_3_);}
	.st2{opacity:0.15;}
	.st3{fill:url(#SVGID_4_);}
	.st4{fill:url(#SVGID_5_);}
	.st5{fill:#F2F2F2;}
	.st6{fill:#D9D9D9;}
	.st7{opacity:0.1;}
	.st8{fill:url(#SVGID_6_);}
	.st9{fill:url(#SVGID_7_);}
</style>
<g>
	<g id="Capa_2_1_">
		<g id="FONDO">
			<g>
				<defs>
					<rect id="SVGID_1_" x="3" y="-2.1" width="1914.1" height="2796"/>
				</defs>
				<clipPath id="SVGID_2_">
					<use xlink:href="#SVGID_1_"  style="overflow:visible;"/>
				</clipPath>
				<g class="st0">
					
						<linearGradient id="SVGID_3_" gradientUnits="userSpaceOnUse" x1="2.9625" y1="2629.9631" x2="1917.0375" y2="2629.9631" gradientTransform="matrix(1 0 0 -1 0 4025.8918)">
						<stop  offset="0" style="stop-color:#F2F2F2"/>
						<stop  offset="1" style="stop-color:#D9D9D9"/>
					</linearGradient>
					<rect x="3" y="-2.1" class="st1" width="1914.1" height="2796"/>
					<g class="st2">
						
							<image style="overflow:visible;enable-background:new    ;" width="737" height="641" xlink:href="222DEA8E5056C082.png"  transform="matrix(1 0 0 1 514.0305 1003.1274)">
						</image>
					</g>
					
						<linearGradient id="SVGID_4_" gradientUnits="userSpaceOnUse" x1="-609.791" y1="4856.8682" x2="1563.1295" y2="4058.4609" gradientTransform="matrix(1 0 0 -1 663.728 5084.0571)">
						<stop  offset="0" style="stop-color:#F2F2F2"/>
						<stop  offset="0.4781" style="stop-color:#EFEFEF"/>
						<stop  offset="0.7653" style="stop-color:#E7E7E7"/>
						<stop  offset="1" style="stop-color:#D9D9D9"/>
					</linearGradient>
					<path class="st3" d="M-246.7-1060.2v2311.4c0,0,117.7,383.6,635.6,0c568.1-420.7,724.2,103.5,811.8,399.3
						c148.5,501.4,271.1,1205.7,769.3,1254.6v-3965.2H-246.7z"/>
					<g class="st2">
						
							<image style="overflow:visible;enable-background:new    ;" width="698" height="395" xlink:href="222DEA8E5056C086.png"  transform="matrix(1 0 0 1 -22.9694 653.1274)">
						</image>
					</g>
					<g class="st2">
						
							<image style="overflow:visible;enable-background:new    ;" width="479" height="658" xlink:href="222DEA8E5056C081.png"  transform="matrix(1 0 0 1 1461.0306 1913.1274)">
						</image>
					</g>
					
						<linearGradient id="SVGID_5_" gradientUnits="userSpaceOnUse" x1="-883.6674" y1="3943.5542" x2="1466.8475" y2="3943.5542" gradientTransform="matrix(1 0 0 -1 663.728 5084.0571)">
						<stop  offset="0" style="stop-color:#D9D9D9"/>
						<stop  offset="0.2347" style="stop-color:#E7E7E7"/>
						<stop  offset="0.5219" style="stop-color:#EFEFEF"/>
						<stop  offset="1" style="stop-color:#F2F2F2"/>
					</linearGradient>
					<path class="st4" d="M2084.6-246.5H-660.8c0,0,154.3,1522.4,885.9,1168.9c1072-518.1,1077.9,396.5,1205.3,915.4
						c132.8,540.7,436.1,770.1,654.1,664.8V-246.5z"/>
					<rect x="3029" y="62.7" class="st5" width="173.4" height="358.7"/>
					<rect x="3202.4" y="550.9" class="st6" width="173.4" height="358.7"/>
					<g class="st7">
						
							<image style="overflow:visible;enable-background:new    ;" width="596" height="807" xlink:href="222DEA8E5056C083.png"  transform="matrix(1 0 0 1 1051.0305 398.1275)">
						</image>
					</g>
					
						<linearGradient id="SVGID_6_" gradientUnits="userSpaceOnUse" x1="121.988" y1="4128.1108" x2="1466.2899" y2="4128.1108" gradientTransform="matrix(1 0 0 -1 663.728 5084.0571)">
						<stop  offset="0" style="stop-color:#F2F2F2"/>
						<stop  offset="0.4781" style="stop-color:#EFEFEF"/>
						<stop  offset="0.7653" style="stop-color:#E7E7E7"/>
						<stop  offset="1" style="stop-color:#D9D9D9"/>
					</linearGradient>
					<path class="st8" d="M548.1-153.3h1572.1v2218.4c0,0-432.4-126.7-521.5-867.4c-98-815-514.2-667.8-683.1-729.2
						C776.1,417.8,570.3,180.6,548.1-153.3z"/>
					<g class="st7">
						
							<image style="overflow:visible;enable-background:new    ;" width="906" height="741" xlink:href="222DEA8E5056C080.png"  transform="matrix(1 0 0 1 482.0305 2111.1274)">
						</image>
					</g>
					
						<linearGradient id="SVGID_7_" gradientUnits="userSpaceOnUse" x1="-468.2434" y1="2397.1687" x2="203.0068" y2="2908.7542" gradientTransform="matrix(1 0 0 -1 663.728 5084.0571)">
						<stop  offset="0" style="stop-color:#F2F2F2"/>
						<stop  offset="1" style="stop-color:#D9D9D9"/>
					</linearGradient>
					<path class="st9" d="M1393.5,2970.2c0,0-134-765.7-913-857.3C64,2064-59.1,1684.6-59.1,1684.6v1285.7H1393.5z"/>
				</g>
			</g>
		</g>
	</g>
</g>
</svg>
