<?xml version="1.0" encoding="utf-8"?>
<!-- Generator: Adobe Illustrator 25.2.1, SVG Export Plug-In . SVG Version: 6.00 Build 0)  -->
<svg version="1.1" id="Capa_1" xmlns="http://www.w3.org/2000/svg" xmlns:xlink="http://www.w3.org/1999/xlink" x="0px" y="0px"
	 viewBox="0 0 1920 250" style="enable-background:new 0 0 1920 250;" xml:space="preserve">
<style type="text/css">
	.st0{clip-path:url(#SVGID_2_);}
	.st1{fill:#C6D026;}
	.st2{fill:#004588;}
	.st3{fill:none;stroke:#FFFFFF;stroke-width:10;}
</style>
<g id="Capa_2_1_">
	<g id="PLECAS">
		<g>
			<g>
				<defs>
					<rect id="SVGID_1_" x="3.4" y="-97.5" width="1915.8" height="342.3"/>
				</defs>
				<clipPath id="SVGID_2_">
					<use xlink:href="#SVGID_1_"  style="overflow:visible;"/>
				</clipPath>
				<g class="st0">
					<path class="st1" d="M2060.5,206.4L2024.1,75c0,0-97.4-83.4-558.9-49.6C1249.4,41.2,990.1,155,928.8,193.8
						c56.1-5.3-31.9-16.7,27.3-20.1C1364,149.8,1766.9,175.8,2060.5,206.4"/>
					<path class="st2" d="M-567.8,415.3c0,0,976-360.7,1744.5-351.6C1965,73,2501.2,370.9,2501.2,370.9V758
						c0,0-769.8-293.1-1796.3-359.5C-482.8,321.7-567.8,415.3-567.8,415.3"/>
					<path class="st3" d="M-567.8,415.3c0,0,976-360.7,1744.5-351.6C1965,73,2501.2,370.9,2501.2,370.9V758
						c0,0-769.8-293.1-1796.3-359.5C-482.8,321.7-567.8,415.3-567.8,415.3z"/>
				</g>
			</g>
		</g>
	</g>
</g>
</svg>
